<?xml version="1.0" encoding="utf-8"?>
<!-- Generator: Adobe Illustrator 21.0.0, SVG Export Plug-In . SVG Version: 6.00 Build 0)  -->
<svg version="1.1" id="Layer_1" xmlns="http://www.w3.org/2000/svg" xmlns:xlink="http://www.w3.org/1999/xlink" x="0px" y="0px"
	 viewBox="0 0 23.7 19.6" style="enable-background:new 0 0 23.7 19.6;" xml:space="preserve">
<style type="text/css">
	.st0{fill:#A29B70;}
</style>
<g>
	<g>
		<path class="st0" d="M14.3,18.8c1-6.2,0.5-12.1-1.4-18.1c-0.6,0.3-1.2,0.7-1.8,1c3.6,4.4,7.2,8.9,10.8,13.3
			c0.2-0.6,0.5-1.2,0.7-1.8c-7.2-0.8-14.4-1.7-21.7-2.5c0.2,0.7,0.4,1.3,0.5,2c6.5-3.6,13.4-6,20.7-7.2c-0.3-0.6-0.7-1.2-1-1.8
			c-3.5,3.9-6.6,8-9.2,12.5c-0.7,1.2,1.1,2.2,1.8,1.1C16.4,13,19.4,9,22.8,5.3c0.7-0.8,0-1.9-1-1.8C14.2,4.8,7.2,7.3,0.5,11
			c-1,0.6-0.4,1.8,0.5,2c7.2,0.8,14.4,1.7,21.7,2.5c1,0.1,1.2-1.2,0.7-1.8c-3.6-4.4-7.2-8.9-10.8-13.3c-0.7-0.8-2.1,0.1-1.8,1
			c1.8,5.5,2.3,11.2,1.4,16.9C12.1,19.6,14.1,20.2,14.3,18.8L14.3,18.8z"/>
	</g>
</g>
</svg>
