<?xml version="1.0" encoding="utf-8"?>
<!-- Generator: Adobe Illustrator 21.0.0, SVG Export Plug-In . SVG Version: 6.00 Build 0)  -->
<svg version="1.1" id="Layer_1" xmlns="http://www.w3.org/2000/svg" xmlns:xlink="http://www.w3.org/1999/xlink" x="0px" y="0px"
	 viewBox="0 0 22 28.7" style="enable-background:new 0 0 22 28.7;" xml:space="preserve">
<style type="text/css">
	.st0{fill:#A9A29A;}
</style>
<g>
	<g>
		<path class="st0" d="M10.3,27.7c0.1-8.9,0.2-17.8,0.3-26.7c-0.7,0.2-1.3,0.4-2,0.5c3.8,5.4,7.6,10.8,11.3,16.2
			c0.4-0.5,0.8-1,1.2-1.5C14.6,13.9,8,12.8,1,12.9c0.2,0.7,0.4,1.3,0.5,2c5.6-3.7,11.6-6.6,17.9-8.7c-0.4-0.4-0.9-0.9-1.3-1.3
			c-1.6,5.3-3.9,10.1-7,14.7c-0.8,1.1,1.1,2.2,1.8,1.1c3.2-4.7,5.5-9.7,7.2-15.2c0.2-0.7-0.5-1.6-1.3-1.3C12.4,6.3,6.3,9.3,0.5,13
			c-0.8,0.5-0.6,2,0.5,2c6.8-0.1,13.2,1,19.6,3.2c0.8,0.3,1.7-0.8,1.2-1.5C18,11.3,14.2,5.9,10.4,0.5C9.9-0.3,8.5-0.1,8.5,1
			C8.4,9.9,8.3,18.8,8.2,27.7C8.2,29,10.3,29,10.3,27.7L10.3,27.7z"/>
	</g>
</g>
</svg>
