<?xml version="1.0" encoding="utf-8"?>
<!-- Generator: Adobe Illustrator 21.0.0, SVG Export Plug-In . SVG Version: 6.00 Build 0)  -->
<svg version="1.1" id="Layer_1" xmlns="http://www.w3.org/2000/svg" xmlns:xlink="http://www.w3.org/1999/xlink" x="0px" y="0px"
	 viewBox="0 0 23.5 23.6" style="enable-background:new 0 0 23.5 23.6;" xml:space="preserve">
<style type="text/css">
	.st0{fill:#A29B70;}
</style>
<g>
	<g>
		<path class="st0" d="M11.5,22.6c0.3-6.6-0.4-13.1-2.2-19.5C8.7,3.3,8.1,3.6,7.5,3.9c3,6.6,8.1,11.4,14.8,14.2
			c0.2-0.7,0.4-1.3,0.6-2c-7.3-1.8-14.5-3.3-22-1.9C1,14.7,1.3,15.3,1.6,16C8.4,11.6,15,6.9,21.2,1.7c-0.6-0.3-1.2-0.7-1.8-1
			c-2.5,6.4-6.1,12-10.8,17c-0.9,1,0.6,2.5,1.5,1.5C15.1,14,18.9,8,21.5,1.3c0.4-1.1-1-1.6-1.8-1c-6.1,5-12.5,9.7-19.2,13.9
			c-1,0.7-0.3,2.1,0.8,1.9c7.1-1.3,14,0.2,20.9,1.9c1.3,0.3,1.8-1.5,0.6-2C16.6,13.5,12,8.9,9.3,2.8C8.8,1.7,7.1,2.5,7.3,3.6
			c1.7,6.2,2.3,12.5,2.1,19C9.4,23.9,11.5,23.9,11.5,22.6L11.5,22.6z"/>
	</g>
</g>
</svg>
