<?xml version="1.0" encoding="utf-8"?>
<!-- Generator: Adobe Illustrator 21.0.0, SVG Export Plug-In . SVG Version: 6.00 Build 0)  -->
<svg version="1.1" id="Layer_1" xmlns="http://www.w3.org/2000/svg" xmlns:xlink="http://www.w3.org/1999/xlink" x="0px" y="0px"
	 viewBox="0 0 25.8 14.4" style="enable-background:new 0 0 25.8 14.4;" xml:space="preserve">
<style type="text/css">
	.st0{fill:#A29B70;}
</style>
<g>
	<g>
		<path class="st0" d="M12.6,1c0,4.1-0.1,8.3-0.1,12.4c0,1.2,1.8,1.5,2.1,0.3c1-4.3,3.8-7.1,7.4-9.4c0.8-0.5,0.6-2.1-0.5-2
			C14.6,3.2,7.9,3.4,1,2.8c-1.2-0.1-1.4,1.8-0.3,2.1c8,2.1,15.8,4.7,23.5,7.9c1.1,0.5,2.1-0.7,1.3-1.6C21.3,6.3,15.8,3.1,9.9,0.7
			c-1.3-0.5-1.8,1.5-0.6,2C14.9,5,20,8,24,12.6c0.4-0.5,0.8-1.1,1.3-1.6c-7.8-3.3-15.8-6-24-8.1C1.2,3.6,1.1,4.3,1,4.9
			c6.8,0.5,13.6,0.3,20.4-0.5c-0.2-0.7-0.4-1.3-0.5-2c-4,2.6-7.3,5.9-8.4,10.7c0.7,0.1,1.4,0.2,2.1,0.3c0-4.1,0.1-8.3,0.1-12.4
			C14.7-0.3,12.6-0.3,12.6,1L12.6,1z"/>
	</g>
</g>
</svg>
