<?xml version="1.0" encoding="utf-8"?>
<!-- Generator: Adobe Illustrator 21.0.0, SVG Export Plug-In . SVG Version: 6.00 Build 0)  -->
<svg version="1.1" id="Layer_1" xmlns="http://www.w3.org/2000/svg" xmlns:xlink="http://www.w3.org/1999/xlink" x="0px" y="0px"
	 viewBox="0 0 24.9 31.7" style="enable-background:new 0 0 24.9 31.7;" xml:space="preserve">
<style type="text/css">
	.st0{fill:#A29B70;}
</style>
<g>
	<g>
		<path class="st0" d="M14.7,30.7c0.2-9.9,0.4-19.7,0.6-29.6c-0.7,0.2-1.3,0.4-2,0.5c3.2,6.6,6.4,13.1,9.6,19.7
			c0.4-0.5,0.8-1,1.2-1.5C16.7,16.6,9.1,15.1,1,15.3c0.1,0.7,0.2,1.4,0.3,2.1c7.4-2.4,14.8-4.8,22.3-7.2c-0.4-0.5-0.8-1-1.2-1.5
			c-2.5,5.2-5,10.3-7.5,15.5c-0.6,1.2,1.2,2.3,1.8,1.1c2.5-5.2,5-10.3,7.5-15.5c0.4-0.8-0.2-1.8-1.2-1.5c-7.4,2.4-14.8,4.8-22.3,7.2
			c-1.1,0.4-0.9,2.1,0.3,2.1c7.9-0.1,15.3,1.3,22.6,4.4c0.9,0.4,1.5-0.8,1.2-1.5c-3.2-6.6-6.4-13.1-9.6-19.7c-0.5-1-1.9-0.5-2,0.5
			c-0.2,9.9-0.4,19.7-0.6,29.6C12.6,32,14.7,32,14.7,30.7L14.7,30.7z"/>
	</g>
</g>
</svg>
