<?xml version="1.0" encoding="utf-8"?>
<!-- Generator: Adobe Illustrator 21.0.0, SVG Export Plug-In . SVG Version: 6.00 Build 0)  -->
<svg version="1.1" id="Layer_1" xmlns="http://www.w3.org/2000/svg" xmlns:xlink="http://www.w3.org/1999/xlink" x="0px" y="0px"
	 viewBox="0 0 17 21.2" style="enable-background:new 0 0 17 21.2;" xml:space="preserve">
<style type="text/css">
	.st0{fill:#A9A29A;}
</style>
<g>
	<g>
		<path class="st0" d="M6.4,20.4C8,14.1,9.6,7.7,11.2,1.3c-0.7,0-1.3,0-2,0c1.5,4.6,3.4,9,5.8,13.2c0.2-0.5,0.4-1,0.6-1.5
			c-5.1,1-9.8-0.1-14.1-2.9c-0.1,0.6-0.2,1.3-0.3,1.9c3.9-1.3,7.8-1.7,11.9-1.2c-0.3-0.4-0.7-0.7-1-1.1c-0.9,1.1-1.7,2.1-2.6,3.2
			c-1.3,0.3-0.8,2.3,0.6,2c2.7-0.6,4.1-2.5,4.1-5.2c0-0.6-0.5-1-1.1-1.1C8.9,8.1,4.9,8.5,0.7,9.9c-0.9,0.3-1,1.4-0.3,1.9
			C5.2,15,10.6,16,16.2,14.9c0.7-0.1,0.9-1,0.6-1.5c-2.3-4-4.2-8.2-5.6-12.7c-0.3-1-1.8-1-2,0C7.6,7.1,6,13.5,4.3,19.9
			C4,21.2,6,21.8,6.4,20.4L6.4,20.4z"/>
	</g>
</g>
</svg>
