<?xml version="1.0" encoding="utf-8"?>
<!-- Generator: Adobe Illustrator 21.0.0, SVG Export Plug-In . SVG Version: 6.00 Build 0)  -->
<svg version="1.1" id="Layer_1" xmlns="http://www.w3.org/2000/svg" xmlns:xlink="http://www.w3.org/1999/xlink" x="0px" y="0px"
	 viewBox="0 0 27.5 27.3" style="enable-background:new 0 0 27.5 27.3;" xml:space="preserve">
<style type="text/css">
	.st0{fill:#A29B70;}
</style>
<g>
	<g>
		<path class="st0" d="M13.3,26.3c0.7-7.8,0.1-15.5-1.8-23.1C11,3.6,10.6,4,10.2,4.4c6,2.5,10.2,7.2,12.2,13.3
			c0.4-0.4,0.9-0.9,1.3-1.3c-7.4-1.6-14.9-3.2-22.3-4.8c0.1,0.6,0.2,1.3,0.3,1.9c8.5-3.9,17-7.8,25.5-11.7c-0.4-0.5-0.8-1.1-1.3-1.6
			C20.4,6.7,15,13.2,9.6,19.6c-0.9,1,0.6,2.5,1.5,1.5c5.4-6.4,10.8-12.9,16.2-19.3C28,0.8,27.1-0.4,26,0.1C17.5,4,9,7.9,0.5,11.8
			c-0.8,0.4-0.6,1.7,0.3,1.9c7.4,1.6,14.9,3.2,22.3,4.8c0.7,0.2,1.5-0.5,1.3-1.3c-2.2-6.9-6.9-12-13.6-14.8C9.9,2.1,9.3,3,9.4,3.7
			c1.8,7.5,2.4,14.9,1.7,22.6C11,27.6,13.1,27.6,13.3,26.3L13.3,26.3z"/>
	</g>
</g>
</svg>
