<?xml version="1.0" encoding="utf-8"?>
<!-- Generator: Adobe Illustrator 21.0.0, SVG Export Plug-In . SVG Version: 6.00 Build 0)  -->
<svg version="1.1" id="Layer_1" xmlns="http://www.w3.org/2000/svg" xmlns:xlink="http://www.w3.org/1999/xlink" x="0px" y="0px"
	 viewBox="0 0 24.7 28.6" style="enable-background:new 0 0 24.7 28.6;" xml:space="preserve">
<style type="text/css">
	.st0{fill:#A29B70;}
</style>
<g>
	<g>
		<path class="st0" d="M13.4,27.5c0.6-9,0.2-17.8-1-26.7c-0.6,0.3-1.3,0.5-1.9,0.8c3.5,7.5,7,15.1,10.6,22.6c0.4-0.5,0.8-1,1.2-1.5
			c-7-2.9-13.9-5.8-20.9-8.7c0,0.7,0,1.3,0,2c7.4-1.4,14.8-2,22.3-1.9c-0.2-0.6-0.5-1.2-0.7-1.8c-3.7,3.5-7.5,7-11.2,10.5
			c-1,0.9,0.5,2.4,1.5,1.5c3.7-3.5,7.5-7,11.2-10.5c0.7-0.6,0.1-1.8-0.7-1.8C15.9,11.9,8.3,12.5,0.7,14c-1.1,0.2-0.8,1.7,0,2
			c7,2.9,13.9,5.8,20.9,8.7c0.9,0.4,1.5-0.8,1.2-1.5c-3.5-7.5-7-15.1-10.6-22.6c-0.5-1.2-2.1-0.3-1.9,0.8c1.2,8.7,1.5,17.4,1,26.2
			C11.2,28.9,13.3,28.9,13.4,27.5L13.4,27.5z"/>
	</g>
</g>
</svg>
