<?xml version="1.0" encoding="utf-8"?>
<!-- Generator: Adobe Illustrator 21.0.0, SVG Export Plug-In . SVG Version: 6.00 Build 0)  -->
<svg version="1.1" id="Layer_1" xmlns="http://www.w3.org/2000/svg" xmlns:xlink="http://www.w3.org/1999/xlink" x="0px" y="0px"
	 viewBox="0 0 30.6 26.6" style="enable-background:new 0 0 30.6 26.6;" xml:space="preserve">
<style type="text/css">
	.st0{fill:#A9A29A;}
</style>
<g>
	<g>
		<path class="st0" d="M10.8,25.9c2.3-7.4,3.3-14.9,3.1-22.7c-0.5,0.3-1.1,0.6-1.6,0.9c2.4,1.1,4.4,2.5,5.8,4.7
			c0.7,1.1,1.2,2.2,1.6,3.5c-0.3,2.7-1.5,3.9-3.7,3.3c-4.4,1.1-10.3,0-14.9,0c0.2,0.7,0.4,1.3,0.5,2C11.4,12.8,20.9,7.6,30.1,2
			c-0.4-0.5-0.8-1.1-1.3-1.6c-6.8,8-13.7,16-20.5,24.1c-0.9,1,0.6,2.5,1.5,1.5c6.8-8,13.7-16,20.5-24.1c0.7-0.9-0.2-2.3-1.3-1.6
			C19.8,5.8,10.3,11,0.5,15.7c-1,0.5-0.5,2,0.5,2c5.3,0,10.5,0.1,15.8,0c1.7,0,3.6,0.1,4.7-1.6c3.2-5.1-4.2-12-8.2-13.8
			c-0.7-0.3-1.6,0-1.6,0.9c0.3,7.6-0.7,14.9-3,22.2C8.4,26.7,10.4,27.2,10.8,25.9L10.8,25.9z"/>
	</g>
</g>
</svg>
