<?xml version="1.0" encoding="utf-8"?>
<!-- Generator: Adobe Illustrator 21.0.0, SVG Export Plug-In . SVG Version: 6.00 Build 0)  -->
<svg version="1.1" id="Layer_1" xmlns="http://www.w3.org/2000/svg" xmlns:xlink="http://www.w3.org/1999/xlink" x="0px" y="0px"
	 viewBox="0 0 17.2 23.2" style="enable-background:new 0 0 17.2 23.2;" xml:space="preserve">
<style type="text/css">
	.st0{fill:#A29B70;}
</style>
<g>
	<g>
		<path class="st0" d="M6.7,22.2c0.5-7,1-14.1,1.5-21.1C7.5,1.1,6.8,1.2,6.1,1.3C7.9,7,9.3,12.8,10.2,18.7c0.6-0.3,1.3-0.5,1.9-0.8
			c-2.5-4.1-6.3-6.5-11.1-7c0.2,0.7,0.4,1.3,0.5,2c4.8-3.3,9.8-6.1,15-8.4c-0.5-0.5-1-1-1.4-1.4c-3.7,5.4-6.9,11.1-9.6,17.1
			c-0.5,1.2,1.3,2.3,1.8,1.1c2.7-6,5.9-11.7,9.6-17.1c0.7-1-0.6-1.8-1.4-1.4C10.3,5,5.3,7.8,0.5,11.1C-0.4,11.7,0,12.9,1,13
			c4,0.4,7.2,2.5,9.3,5.9c0.7,1.1,2.1,0.3,1.9-0.8c-1-5.9-2.3-11.7-4.1-17.4C7.8-0.4,6.2-0.1,6.1,1c-0.5,7-1,14.1-1.5,21.1
			C4.5,23.5,6.6,23.5,6.7,22.2L6.7,22.2z"/>
	</g>
</g>
</svg>
