<?xml version="1.0" encoding="utf-8"?>
<!-- Generator: Adobe Illustrator 21.0.0, SVG Export Plug-In . SVG Version: 6.00 Build 0)  -->
<svg version="1.1" id="Layer_1" xmlns="http://www.w3.org/2000/svg" xmlns:xlink="http://www.w3.org/1999/xlink" x="0px" y="0px"
	 viewBox="0 0 23.2 20.1" style="enable-background:new 0 0 23.2 20.1;" xml:space="preserve">
<style type="text/css">
	.st0{fill:#A29B70;}
</style>
<g>
	<g>
		<path class="st0" d="M10.2,16.4c-0.1-4.9,0.2-9.8,1-14.7C10.7,1.9,10.1,2,9.5,2.2c2.9,2.9,5.8,5.7,8.7,8.6
			c0.2-0.6,0.5-1.2,0.7-1.8c-6,0.4-11.8,0-17.7-1.3c0,0.7,0,1.3,0,2c7-2.6,14.1-5.1,21.1-7.7c-0.3-0.6-0.7-1.2-1-1.8
			C15.8,5.7,11.2,11.7,7.6,18.5c-0.6,1.2,1.2,2.3,1.8,1.1C13,12.9,17.4,7,22.9,1.8c0.7-0.7,0-2.1-1-1.8c-7,2.6-14.1,5.1-21.1,7.7
			c-0.9,0.3-1.1,1.8,0,2c6,1.3,12.1,1.8,18.2,1.3c0.9-0.1,1.4-1.1,0.7-1.8c-2.9-2.9-5.8-5.7-8.7-8.6c-0.5-0.5-1.6-0.3-1.8,0.5
			C8.4,6.2,8,11.3,8.1,16.4C8.2,17.7,10.3,17.7,10.2,16.4L10.2,16.4z"/>
	</g>
</g>
</svg>
