<?xml version="1.0" encoding="utf-8"?>
<!-- Generator: Adobe Illustrator 21.0.0, SVG Export Plug-In . SVG Version: 6.00 Build 0)  -->
<svg version="1.1" id="Layer_1" xmlns="http://www.w3.org/2000/svg" xmlns:xlink="http://www.w3.org/1999/xlink" x="0px" y="0px"
	 viewBox="0 0 24.5 22.7" style="enable-background:new 0 0 24.5 22.7;" xml:space="preserve">
<style type="text/css">
	.st0{fill:#A9A29A;}
</style>
<g>
	<g>
		<path class="st0" d="M9.1,21.7C8.8,14.7,9.6,8,11.6,1.3c-0.6,0.1-1.3,0.2-1.9,0.3c2.4,4.5,4.9,8.9,7.3,13.4c0.4-0.5,0.8-1,1.2-1.5
			C12.5,12.2,6.9,11.1,1.3,10c0,0.7,0,1.3,0,2c7.5-3.1,14.9-6.2,22.4-9.3c-0.4-0.5-0.8-1-1.2-1.5c-2.7,3.6-5.3,7.3-8,10.9
			c-0.8,1.1,1,2.1,1.8,1.1c2.7-3.6,5.3-7.3,8-10.9c0.5-0.7-0.4-1.9-1.2-1.5C15.7,3.8,8.2,6.9,0.7,10c-0.9,0.4-1.1,1.8,0,2
			c5.6,1.1,11.2,2.3,16.8,3.4c0.9,0.2,1.6-0.7,1.2-1.5C16.3,9.4,13.9,5,11.5,0.5C11-0.3,9.8-0.1,9.5,0.8C7.5,7.6,6.6,14.5,7,21.7
			C7,23,9.1,23,9.1,21.7L9.1,21.7z"/>
	</g>
</g>
</svg>
