<?xml version="1.0" encoding="utf-8"?>
<!-- Generator: Adobe Illustrator 21.0.0, SVG Export Plug-In . SVG Version: 6.00 Build 0)  -->
<svg version="1.1" id="Layer_1" xmlns="http://www.w3.org/2000/svg" xmlns:xlink="http://www.w3.org/1999/xlink" x="0px" y="0px"
	 viewBox="0 0 26.8 23.9" style="enable-background:new 0 0 26.8 23.9;" xml:space="preserve">
<style type="text/css">
	.st0{fill:#A9A29A;}
</style>
<g>
	<g>
		<path class="st0" d="M5.5,22.5c1.6-7.1,3.2-14.1,4.7-21.2c-0.7,0-1.3,0-2,0c3,7.6,6.5,15,10.7,22.1c0.5-0.5,1-1,1.4-1.4
			C14.3,18.3,8,16.1,1,15.3c0.2,0.7,0.4,1.3,0.5,2C9.1,11.9,17.2,7.9,26,5.1c-0.4-0.5-0.8-1-1.2-1.5C20,11.4,13.2,17.2,4.7,20.6
			c-1.2,0.5-0.7,2.5,0.6,2c9-3.7,16.3-9.8,21.4-18c0.5-0.8-0.3-1.8-1.2-1.5C16.5,5.9,8.2,10,0.5,15.4C-0.4,16,0,17.2,1,17.4
			c6.6,0.8,12.6,2.9,18.2,6.4c0.9,0.6,2-0.5,1.4-1.4c-4-6.9-7.5-14.1-10.4-21.6c-0.3-0.9-1.8-1.1-2,0C6.6,7.8,5.1,14.9,3.5,21.9
			C3.2,23.3,5.2,23.8,5.5,22.5L5.5,22.5z"/>
	</g>
</g>
</svg>
