<?xml version="1.0" encoding="utf-8"?>
<!-- Generator: Adobe Illustrator 21.0.0, SVG Export Plug-In . SVG Version: 6.00 Build 0)  -->
<svg version="1.1" id="Layer_1" xmlns="http://www.w3.org/2000/svg" xmlns:xlink="http://www.w3.org/1999/xlink" x="0px" y="0px"
	 viewBox="0 0 16.7 24.3" style="enable-background:new 0 0 16.7 24.3;" xml:space="preserve">
<style type="text/css">
	.st0{fill:#A29B70;}
</style>
<g>
	<g>
		<path class="st0" d="M8.5,23.3C8.1,15.7,7,8.2,5.3,0.8C4.7,1.1,4.1,1.3,3.4,1.6c2.4,4.8,4.8,9.7,7.2,14.5c0.4-0.5,0.8-1,1.2-1.5
			c-3.5-0.9-7-1.7-10.5-2.6c0.1,0.6,0.2,1.3,0.3,1.9c4.9-2.6,9.7-5.2,14.6-7.9c-0.5-0.5-1-1-1.4-1.4C11.9,9.7,9,14.9,6.1,20
			c-0.7,1.2,1.2,2.2,1.8,1.1c2.9-5.1,5.7-10.3,8.6-15.4c0.5-0.9-0.5-1.9-1.4-1.4c-4.9,2.6-9.7,5.2-14.6,7.9
			c-0.8,0.4-0.6,1.7,0.3,1.9c3.5,0.9,7,1.7,10.5,2.6c0.9,0.2,1.6-0.7,1.2-1.5C10,10.2,7.6,5.4,5.2,0.5C4.7-0.6,3.1,0.2,3.3,1.3
			c1.6,7.3,2.6,14.6,3,22C6.4,24.7,8.5,24.7,8.5,23.3L8.5,23.3z"/>
	</g>
</g>
</svg>
