<?xml version="1.0" encoding="utf-8"?>
<!-- Generator: Adobe Illustrator 21.0.0, SVG Export Plug-In . SVG Version: 6.00 Build 0)  -->
<svg version="1.1" id="Layer_1" xmlns="http://www.w3.org/2000/svg" xmlns:xlink="http://www.w3.org/1999/xlink" x="0px" y="0px"
	 viewBox="0 0 22.1 25.9" style="enable-background:new 0 0 22.1 25.9;" xml:space="preserve">
<style type="text/css">
	.st0{fill:#A9A29A;}
</style>
<g>
	<g>
		<path class="st0" d="M8.9,24.9C9.7,17,10.5,9,11.3,1.1c-0.6,0.2-1.2,0.5-1.8,0.7c4.4,4.5,7.5,9.7,9.4,15.7c0.3-0.4,0.7-0.9,1-1.3
			C13.6,15.7,7.3,15.3,1,14.9c0.1,0.7,0.2,1.4,0.3,2.1c6.7-1.8,13.3-3.7,20-5.5c-0.4-0.5-0.8-1-1.2-1.5c-1.6,3.3-3.7,5.9-6.6,8.1
			c-1.1,0.8,0,2.6,1.1,1.8c3.2-2.4,5.6-5.2,7.3-8.9c0.4-0.8-0.3-1.8-1.2-1.5c-6.7,1.8-13.3,3.7-20,5.5c-1.2,0.3-0.9,2,0.3,2.1
			c6.3,0.4,12.6,0.9,18.9,1.3c0.7,0,1.2-0.7,1-1.3C19,10.6,15.7,5.1,11,0.3c-0.7-0.7-1.7-0.1-1.8,0.7C8.4,9,7.6,17,6.8,24.9
			C6.6,26.3,8.7,26.2,8.9,24.9L8.9,24.9z"/>
	</g>
</g>
</svg>
