<?xml version="1.0" encoding="utf-8"?>
<!-- Generator: Adobe Illustrator 21.0.0, SVG Export Plug-In . SVG Version: 6.00 Build 0)  -->
<svg version="1.1" id="Layer_1" xmlns="http://www.w3.org/2000/svg" xmlns:xlink="http://www.w3.org/1999/xlink" x="0px" y="0px"
	 viewBox="0 0 23.2 20.4" style="enable-background:new 0 0 23.2 20.4;" xml:space="preserve">
<style type="text/css">
	.st0{fill:#A29B70;}
</style>
<g>
	<g>
		<path class="st0" d="M11.6,19.3c0-5.6-0.1-11.1-0.1-16.7c-0.7,0.2-1.3,0.4-2,0.5c2,3.3,4,6.6,6,9.9c0.3-0.5,0.6-1.1,0.9-1.6
			C11.3,11.4,6.2,11.3,1,11.2c0.2,0.7,0.4,1.3,0.5,2c6.6-4.3,13.6-8,20.9-11c-0.3-0.6-0.7-1.2-1-1.8c-4.5,4.6-7.7,10-9.8,16.1
			c-0.4,1.3,1.6,1.8,2,0.6c2-5.8,5-10.8,9.3-15.2c0.7-0.7,0-2.2-1-1.8C14.4,3.2,7.3,6.9,0.5,11.3c-0.9,0.6-0.5,1.9,0.5,2
			c5.2,0.1,10.3,0.2,15.5,0.4c0.8,0,1.3-0.9,0.9-1.6c-2-3.3-4-6.6-6-9.9c-0.5-0.9-2-0.5-2,0.5c0,5.6,0.1,11.1,0.1,16.7
			C9.6,20.7,11.7,20.7,11.6,19.3L11.6,19.3z"/>
	</g>
</g>
</svg>
